<mxfile host="65bd71144e" modified="2021-02-05T07:44:33.018Z" agent="5.0 (Windows NT 10.0; Win64; x64) AppleWebKit/537.36 (KHTML, like Gecko) Code/1.52.1 Chrome/83.0.4103.122 Electron/9.3.5 Safari/537.36" version="13.10.0" etag="CWmFTV_1aTnZcj4hi2fL" type="embed">
    <diagram id="bZokxGMprUqaMWNSIpq2" name="Page-1">
        <mxGraphModel dx="820" dy="574" grid="1" gridSize="10" guides="1" tooltips="1" connect="1" arrows="1" fold="1" page="1" pageScale="1" pageWidth="850" pageHeight="1100" math="0" shadow="0">
            <root>
                <mxCell id="0"/>
                <mxCell id="1" parent="0"/>
                <mxCell id="2" value="&lt;font style=&quot;font-size: 19px&quot;&gt;Nav Graph&lt;/font&gt;" style="rounded=0;whiteSpace=wrap;html=1;fillColor=#EFEFEF;align=left;fontColor=#000000;verticalAlign=top;" vertex="1" parent="1">
                    <mxGeometry x="80" y="60" width="500" height="450" as="geometry"/>
                </mxCell>
                <mxCell id="3" value="" style="endArrow=none;html=1;fontColor=#000000;exitX=-0.002;exitY=0.109;exitDx=0;exitDy=0;exitPerimeter=0;entryX=1.003;entryY=0.112;entryDx=0;entryDy=0;entryPerimeter=0;" edge="1" parent="1" source="2" target="2">
                    <mxGeometry width="50" height="50" relative="1" as="geometry">
                        <mxPoint x="150" y="210" as="sourcePoint"/>
                        <mxPoint x="200" y="160" as="targetPoint"/>
                    </mxGeometry>
                </mxCell>
                <mxCell id="4" value="SparseArray" style="rounded=1;whiteSpace=wrap;html=1;fontSize=15;fillColor=none;strokeColor=#000000;dashed=1;strokeWidth=2;verticalAlign=top;fontColor=#000000;" vertex="1" parent="1">
                    <mxGeometry x="120" y="150" width="160" height="310" as="geometry"/>
                </mxCell>
                <mxCell id="5" value="&lt;font style=&quot;font-size: 15px&quot;&gt;NavDestination&lt;/font&gt;" style="rounded=1;whiteSpace=wrap;html=1;fillColor=#1ba1e2;fontColor=#ffffff;strokeColor=none;" vertex="1" parent="1">
                    <mxGeometry x="140" y="190" width="120" height="60" as="geometry"/>
                </mxCell>
                <mxCell id="6" value="&lt;font style=&quot;font-size: 15px&quot;&gt;NavDestination&lt;/font&gt;" style="rounded=1;whiteSpace=wrap;html=1;fillColor=#1ba1e2;fontColor=#ffffff;strokeColor=none;" vertex="1" parent="1">
                    <mxGeometry x="140" y="260" width="120" height="60" as="geometry"/>
                </mxCell>
                <mxCell id="7" value="&lt;font style=&quot;font-size: 15px&quot;&gt;NavDestination&lt;/font&gt;" style="rounded=1;whiteSpace=wrap;html=1;fillColor=#1ba1e2;fontColor=#ffffff;strokeColor=none;" vertex="1" parent="1">
                    <mxGeometry x="140" y="340" width="120" height="60" as="geometry"/>
                </mxCell>
                <mxCell id="8" value="&lt;font style=&quot;font-size: 24px&quot;&gt;Extend from NavDestination&lt;/font&gt;" style="rounded=0;whiteSpace=wrap;html=1;fillColor=#60a917;fontColor=#ffffff;strokeColor=none;" vertex="1" parent="1">
                    <mxGeometry x="340" y="150" width="240" height="170" as="geometry"/>
                </mxCell>
                <mxCell id="10" value="StartDestId" style="rounded=0;whiteSpace=wrap;html=1;fontFamily=Helvetica;fontSize=18;align=center;fillColor=#00FF00;strokeColor=none;fontColor=#000000;" vertex="1" parent="1">
                    <mxGeometry x="210" y="60" width="120" height="40" as="geometry"/>
                </mxCell>
                <mxCell id="11" value="StartDestIdName" style="rounded=0;whiteSpace=wrap;html=1;fontFamily=Helvetica;fontSize=18;align=center;fillColor=#00FF00;strokeColor=none;fontColor=#000000;" vertex="1" parent="1">
                    <mxGeometry x="340" y="60" width="160" height="40" as="geometry"/>
                </mxCell>
            </root>
        </mxGraphModel>
    </diagram>
</mxfile>